<svg width="24" height="24" viewBox="0 0 24 24" fill="none" xmlns="http://www.w3.org/2000/svg">
<path d="M17 22V19H7C6.45 19 5.97934 18.8043 5.588 18.413C5.19667 18.0217 5.00067 17.5507 5 17V7H2C1.71667 7 1.47934 6.904 1.288 6.712C1.09667 6.52 1.00067 6.28267 1 6C0.99934 5.71734 1.09534 5.48 1.288 5.288C1.48067 5.096 1.718 5 2 5H5V2C5 1.71667 5.096 1.47934 5.288 1.288C5.48 1.09667 5.71734 1.00067 6 1C6.28267 0.99934 6.52034 1.09534 6.713 1.288C6.90567 1.48067 7.00134 1.718 7 2V17H22C22.2833 17 22.521 17.096 22.713 17.288C22.905 17.48 23.0007 17.7173 23 18C22.9993 18.2827 22.9033 18.5203 22.712 18.713C22.5207 18.9057 22.2833 19.0013 22 19H19V22C19 22.2833 18.904 22.521 18.712 22.713C18.52 22.905 18.2827 23.0007 18 23C17.7173 22.9993 17.48 22.9033 17.288 22.712C17.096 22.5207 17 22.2833 17 22ZM17 15V7H9V5H17C17.55 5 18.021 5.196 18.413 5.588C18.805 5.98 19.0007 6.45067 19 7V15H17Z" fill="#292929"/>
</svg>
