<?xml version="1.0" encoding="UTF-8" standalone="no"?>
<!DOCTYPE svg PUBLIC "-//W3C//DTD SVG 1.1//EN" "http://www.w3.org/Graphics/SVG/1.1/DTD/svg11.dtd">
<svg width="100%" height="100%" viewBox="0 0 25 25" version="1.1" xmlns="http://www.w3.org/2000/svg" xmlns:xlink="http://www.w3.org/1999/xlink" xml:space="preserve" xmlns:serif="http://www.serif.com/" style="fill-rule:evenodd;clip-rule:evenodd;stroke-linejoin:round;stroke-miterlimit:2;">
    <g transform="matrix(1,0,0,1,-106.179,-746)">
        <g id="Artboard2" transform="matrix(1,0,0,1,264.423,-0.60164)">
            <rect x="-158.244" y="746.602" width="24.87" height="24.93" style="fill:none;"/>
            <g transform="matrix(0.917882,0,0,0.917882,-244.697,18.8766)">
                <path d="M116.169,795.532C117.519,795.532 118.614,796.627 118.614,797.977L118.614,814.845C118.614,816.195 117.519,817.289 116.169,817.289L99.301,817.289C97.951,817.289 96.856,816.195 96.856,814.845L96.856,797.977C96.856,796.627 97.951,795.532 99.301,795.532L116.169,795.532Z" style="fill:url(#_Linear1);"/>
            </g>
        </g>
    </g>
    <defs>
        <linearGradient id="_Linear1" x1="0" y1="0" x2="1" y2="0" gradientUnits="userSpaceOnUse" gradientTransform="matrix(21.7572,0,0,21.7572,96.8565,806.411)"><stop offset="0" style="stop-color:black;stop-opacity:1"/><stop offset="1" style="stop-color:rgb(199,199,199);stop-opacity:1"/></linearGradient>
    </defs>
</svg>
