<?xml version="1.0" encoding="UTF-8" standalone="no"?>
<!DOCTYPE svg PUBLIC "-//W3C//DTD SVG 1.1//EN" "http://www.w3.org/Graphics/SVG/1.1/DTD/svg11.dtd">
<svg width="100%" height="100%" viewBox="0 0 25 25" version="1.1" xmlns="http://www.w3.org/2000/svg" xmlns:xlink="http://www.w3.org/1999/xlink" xml:space="preserve" xmlns:serif="http://www.serif.com/" style="fill-rule:evenodd;clip-rule:evenodd;stroke-linecap:round;stroke-linejoin:round;">
    <g transform="matrix(1,0,0,1,-62.0551,-746)">
        <g id="Artboard2" transform="matrix(1,0,0,1,220.299,-0.60164)">
            <rect x="-158.244" y="746.602" width="24.87" height="24.93" style="fill:none;"/>
            <g transform="matrix(1.13287,0,0,1.13287,29.1163,-100.819)">
                <g transform="matrix(1,0,0,1,-166.909,746.383)">
                    <path d="M9.641,4.208L3.508,10.249C3.183,10.57 3,11.004 3,11.458C3,11.911 3.183,12.345 3.508,12.666L8.413,17.499C8.575,17.658 8.766,17.784 8.976,17.87C9.187,17.956 9.413,18 9.641,18C9.869,18 10.094,17.956 10.305,17.87C10.516,17.784 10.707,17.658 10.868,17.499L17,11.458L9.641,4.208ZM9.641,4.208L8.414,3" style="fill:none;fill-rule:nonzero;stroke:black;stroke-width:2px;"/>
                </g>
                <g transform="matrix(1,0,0,1,-166.909,746.383)">
                    <path d="M19.5,15C19.5,15 22,17.656 22,19.337C22,20.806 20.879,22 19.5,22C18.121,22 17.01,20.806 17,19.337C17.008,17.656 19.5,15 19.5,15Z" style="fill:none;fill-rule:nonzero;stroke:black;stroke-width:1.5px;stroke-miterlimit:1.5;"/>
                </g>
            </g>
        </g>
    </g>
</svg>
