<svg width="16" height="16" viewBox="0 0 16 16" fill="none" xmlns="http://www.w3.org/2000/svg">
<path d="M7.966 6.58442L7.09232 5.71075C7.2007 5.43206 7.25821 5.13125 7.25821 4.81496C7.25821 3.44584 6.15008 2.33771 4.78096 2.33771C3.41184 2.33771 2.30371 3.44584 2.30371 4.81496C2.30371 6.18408 3.41184 7.29221 4.78096 7.29221C5.09725 7.29221 5.39806 7.23249 5.67675 7.12632L6.55043 8L5.67675 8.87367C5.39806 8.76529 5.09725 8.70778 4.78096 8.70778C3.41184 8.70778 2.30371 9.81591 2.30371 11.185C2.30371 12.5542 3.41184 13.6623 4.78096 13.6623C6.15008 13.6623 7.25821 12.5542 7.25821 11.185C7.25821 10.8687 7.19849 10.5679 7.09232 10.2892L13.3452 4.03639C13.5022 3.87935 13.5022 3.62721 13.3452 3.47017C12.7192 2.84422 11.7062 2.84422 11.0802 3.47017L7.966 6.58442ZM8.46587 9.91544L11.0802 12.5298C11.7062 13.1558 12.7192 13.1558 13.3452 12.5298C13.5022 12.3728 13.5022 12.1206 13.3452 11.9636L9.88144 8.49987L8.46587 9.91544ZM3.71928 4.81496C3.71928 4.67554 3.74674 4.53748 3.8001 4.40867C3.85345 4.27986 3.93165 4.16282 4.03024 4.06424C4.12883 3.96565 4.24586 3.88745 4.37467 3.8341C4.50348 3.78074 4.64154 3.75328 4.78096 3.75328C4.92038 3.75328 5.05844 3.78074 5.18725 3.8341C5.31606 3.88745 5.43309 3.96565 5.53168 4.06424C5.63027 4.16282 5.70847 4.27986 5.76182 4.40867C5.81518 4.53748 5.84264 4.67554 5.84264 4.81496C5.84264 4.95438 5.81518 5.09244 5.76182 5.22125C5.70847 5.35005 5.63027 5.46709 5.53168 5.56568C5.43309 5.66427 5.31606 5.74247 5.18725 5.79582C5.05844 5.84918 4.92038 5.87664 4.78096 5.87664C4.64154 5.87664 4.50348 5.84918 4.37467 5.79582C4.24586 5.74247 4.12883 5.66427 4.03024 5.56568C3.93165 5.46709 3.85345 5.35005 3.8001 5.22125C3.74674 5.09244 3.71928 4.95438 3.71928 4.81496ZM4.78096 10.1234C4.92038 10.1234 5.05844 10.1508 5.18725 10.2042C5.31606 10.2575 5.43309 10.3357 5.53168 10.4343C5.63027 10.5329 5.70847 10.6499 5.76182 10.7787C5.81518 10.9076 5.84264 11.0456 5.84264 11.185C5.84264 11.3245 5.81518 11.4625 5.76182 11.5913C5.70847 11.7201 5.63027 11.8372 5.53168 11.9358C5.43309 12.0343 5.31606 12.1125 5.18725 12.1659C5.05844 12.2193 4.92038 12.2467 4.78096 12.2467C4.64154 12.2467 4.50348 12.2193 4.37467 12.1659C4.24586 12.1125 4.12883 12.0343 4.03024 11.9358C3.93165 11.8372 3.85345 11.7201 3.8001 11.5913C3.74674 11.4625 3.71928 11.3245 3.71928 11.185C3.71928 11.0456 3.74674 10.9076 3.8001 10.7787C3.85345 10.6499 3.93165 10.5329 4.03024 10.4343C4.12883 10.3357 4.24586 10.2575 4.37467 10.2042C4.50348 10.1508 4.64154 10.1234 4.78096 10.1234Z" fill="#292929"/>
</svg>
