<?xml version="1.0" encoding="UTF-8" standalone="no"?>
<!DOCTYPE svg PUBLIC "-//W3C//DTD SVG 1.1//EN" "http://www.w3.org/Graphics/SVG/1.1/DTD/svg11.dtd">
<svg width="100%" height="100%" viewBox="0 0 292 285" version="1.1" xmlns="http://www.w3.org/2000/svg" xmlns:xlink="http://www.w3.org/1999/xlink" xml:space="preserve" xmlns:serif="http://www.serif.com/" style="fill-rule:evenodd;clip-rule:evenodd;stroke-linejoin:round;stroke-miterlimit:2;">
    <g transform="matrix(1,0,0,1,-4496.984255,-2499)">
        <g id="Artboard2" transform="matrix(0.908991,0,0,1,1462.305894,-0.442464)">
            <rect x="3338.513" y="2499.442" width="320.384" height="284.649" style="fill:none;"/>
            <g transform="matrix(1.379764,0,0,1.254194,-2465.494902,-664.038527)">
                <g transform="matrix(1.021011,-1.021011,1.432212,1.432212,-2915.372316,3049.471148)">
                    <path d="M3752.96,2337.032C3758.325,2337.032 3762.674,2340.132 3762.674,2343.957L3762.674,2429.279C3762.674,2433.103 3758.325,2436.204 3752.96,2436.204L3752.958,2436.204C3747.593,2436.204 3743.244,2433.103 3743.244,2429.279L3743.244,2343.957C3743.244,2340.132 3747.593,2337.032 3752.958,2337.032L3752.96,2337.032Z" style="fill:white;"/>
                </g>
                <g transform="matrix(-1.021011,-1.021011,-1.432212,1.432212,11584.535323,3049.471148)">
                    <path d="M3752.96,2337.032L3752.958,2337.032C3747.593,2337.032 3743.244,2340.132 3743.244,2343.957L3743.244,2429.279C3743.244,2433.103 3747.593,2436.204 3752.958,2436.204L3752.96,2436.204C3758.325,2436.204 3762.674,2433.103 3762.674,2429.279L3762.674,2343.957C3762.674,2340.132 3758.325,2337.032 3752.96,2337.032Z" style="fill:white;"/>
                </g>
            </g>
        </g>
    </g>
</svg>
