<?xml version="1.0" encoding="UTF-8" standalone="no"?>
<!DOCTYPE svg PUBLIC "-//W3C//DTD SVG 1.1//EN" "http://www.w3.org/Graphics/SVG/1.1/DTD/svg11.dtd">
<svg width="100%" height="100%" viewBox="0 0 857 808" version="1.1" xmlns="http://www.w3.org/2000/svg" xmlns:xlink="http://www.w3.org/1999/xlink" xml:space="preserve" xmlns:serif="http://www.serif.com/" style="fill-rule:evenodd;clip-rule:evenodd;stroke-linejoin:round;stroke-miterlimit:2;">
    <g transform="matrix(1,0,0,1,-4505.52,-1917.55)">
        <g transform="matrix(1.96455,0,0,1.81911,4074.04,1184.18)">
            <path d="M226.971,763.839C228.689,760.775 228.689,756.935 226.971,753.871C222.315,745.574 219.634,735.843 219.634,725.441L219.634,725.44C219.634,715.038 222.315,705.307 226.971,697.01C228.689,693.946 228.689,690.106 226.971,687.043C222.315,678.745 219.634,669.014 219.634,658.612L219.634,658.611C219.634,648.209 222.315,638.478 226.971,630.18C228.689,627.117 228.689,623.276 226.971,620.213C222.315,611.915 219.634,602.184 219.634,591.782L219.634,591.781C219.634,581.379 222.315,571.648 226.971,563.351C228.689,560.287 228.689,556.447 226.971,553.384C222.315,545.086 219.634,535.355 219.634,524.953L219.634,524.952C219.634,514.55 222.315,504.819 226.971,496.521C228.689,493.458 228.689,489.618 226.971,486.554C222.315,478.256 219.634,468.525 219.634,458.123L219.634,458.122C219.634,427.782 242.443,403.15 270.537,403.15C281.065,403.15 290.851,406.61 298.973,412.533C301.982,414.723 305.921,414.723 308.929,412.533C317.051,406.61 326.837,403.151 337.365,403.151L337.366,403.151C347.895,403.151 357.681,406.61 365.802,412.533C368.811,414.723 372.75,414.723 375.758,412.533C383.88,406.61 393.666,403.151 404.194,403.151L404.196,403.151C414.724,403.151 424.51,406.61 432.632,412.533C435.641,414.723 439.579,414.723 442.588,412.533C450.71,406.61 460.496,403.151 471.024,403.151L471.025,403.151C481.553,403.151 491.34,406.61 499.461,412.533C502.47,414.724 506.409,414.723 509.417,412.533C517.539,406.61 527.325,403.151 537.854,403.151L537.855,403.151C548.383,403.151 558.169,406.61 566.291,412.533C569.3,414.724 573.238,414.724 576.247,412.533C584.369,406.61 594.155,403.151 604.683,403.151L604.684,403.151C632.778,403.151 655.586,427.783 655.586,458.123C655.586,468.525 652.905,478.256 648.249,486.554C646.532,489.617 646.532,493.457 648.249,496.521C652.905,504.819 655.586,514.55 655.586,524.951L655.586,524.952C655.586,535.354 652.905,545.085 648.249,553.383C646.532,556.446 646.532,560.286 648.249,563.35C652.905,571.648 655.586,581.379 655.586,591.781L655.586,591.782C655.586,602.184 652.905,611.915 648.249,620.212C646.532,623.276 646.532,627.116 648.249,630.18C652.905,638.477 655.586,648.208 655.586,658.61L655.586,658.611C655.586,669.013 652.905,678.744 648.249,687.042C646.532,690.105 646.532,693.945 648.249,697.009C652.905,705.307 655.586,715.038 655.586,725.44L655.586,725.441C655.586,735.843 652.905,745.574 648.249,753.871C646.532,756.935 646.532,760.775 648.249,763.839C652.905,772.136 655.586,781.867 655.586,792.269L655.586,792.27C655.586,822.61 632.777,847.242 604.684,847.242C591.901,847.242 580.213,842.143 571.269,833.727C562.326,842.143 550.637,847.242 537.855,847.242L537.854,847.242C525.072,847.242 513.384,842.143 504.44,833.727C495.497,842.143 483.808,847.242 471.026,847.242L471.025,847.242C458.242,847.242 446.554,842.143 437.61,833.727C428.667,842.143 416.979,847.242 404.196,847.242L404.195,847.242C391.413,847.242 379.725,842.143 370.781,833.727C361.838,842.143 350.149,847.242 337.367,847.242L337.366,847.242C324.583,847.242 312.895,842.143 303.952,833.726C295.008,842.143 283.32,847.242 270.537,847.242L270.536,847.242C242.442,847.242 219.634,822.61 219.634,792.27C219.634,781.868 222.315,772.137 226.971,763.839Z" style="fill:rgb(245,245,245);"/>
        </g>
        <g transform="matrix(0.842134,0,0,0.842134,3668.84,1113.31)">
            <path d="M1757.7,957.01C1732.24,1074.78 1627.38,1163.14 1502.03,1163.14C1376.69,1163.14 1271.82,1074.78 1246.37,957.01C1253.44,955.695 1260.73,955.008 1268.18,955.008L1268.18,955.008C1292.74,955.008 1315.57,962.481 1334.52,975.275C1341.54,980.006 1350.73,980.006 1357.74,975.275C1376.69,962.481 1399.52,955.008 1424.08,955.008L1424.08,955.008C1448.64,955.008 1471.47,962.481 1490.42,975.275C1497.44,980.006 1506.63,980.006 1513.65,975.275C1532.59,962.481 1555.42,955.008 1579.98,955.008L1579.99,955.008C1604.55,955.008 1627.38,962.481 1646.32,975.275C1653.34,980.007 1662.53,980.006 1669.55,975.275C1688.49,962.481 1711.32,955.008 1735.88,955.008L1735.89,955.008C1743.34,955.008 1750.62,955.695 1757.7,957.01Z" style="fill:rgb(245,218,161);"/>
        </g>
    </g>
</svg>
