<svg width="24" height="24" viewBox="0 0 24 24" fill="none" xmlns="http://www.w3.org/2000/svg">
<path d="M11.9999 19C11.8256 19 11.6621 18.9732 11.5096 18.9196C11.357 18.8661 11.2154 18.7741 11.0846 18.6436L6.3772 13.9784C6.11567 13.7192 5.99014 13.4168 6.0006 13.0713C6.01106 12.7257 6.1366 12.4233 6.3772 12.1641C6.63872 11.905 6.9495 11.7702 7.30953 11.7598C7.66956 11.7495 7.9799 11.8734 8.24055 12.1317L10.6923 14.5615V5.2959C10.6923 4.92873 10.8179 4.62117 11.0689 4.37322C11.32 4.12527 11.6303 4.00087 11.9999 4C12.3696 3.99914 12.6803 4.12355 12.9323 4.37322C13.1842 4.6229 13.3093 4.93046 13.3076 5.2959V14.5615L15.7593 12.1317C16.0209 11.8726 16.3316 11.7482 16.6917 11.7585C17.0517 11.7689 17.362 11.9041 17.6227 12.1641C17.8624 12.4233 17.988 12.7257 17.9993 13.0713C18.0106 13.4168 17.8851 13.7192 17.6227 13.9784L12.9153 18.6436C12.7845 18.7732 12.6429 18.8652 12.4903 18.9196C12.3378 18.9741 12.1743 19.0008 11.9999 19Z" fill="black"/>
</svg>
