<?xml version="1.0" encoding="UTF-8" standalone="no"?>
<!DOCTYPE svg PUBLIC "-//W3C//DTD SVG 1.1//EN" "http://www.w3.org/Graphics/SVG/1.1/DTD/svg11.dtd">
<svg width="100%" height="100%" viewBox="0 0 559 288" version="1.1" xmlns="http://www.w3.org/2000/svg" xmlns:xlink="http://www.w3.org/1999/xlink" xml:space="preserve" xmlns:serif="http://www.serif.com/" style="fill-rule:evenodd;clip-rule:evenodd;stroke-linecap:round;stroke-linejoin:round;stroke-miterlimit:1.5;">
    <g transform="matrix(1,0,0,1,-1284.015433,-1195.88307)">
        <g transform="matrix(1.916629,0,0,1,0,0)">
            <g transform="matrix(2.173956,0,0,4.166667,669.849528,1195.848208)">
                <path d="M53.313,54.252C55.085,52.212 56.157,49.542 56.157,46.629C56.157,43.717 55.085,41.052 53.313,39.007C54.517,38.365 55.894,38.008 57.35,38.008C62.108,38.008 65.977,41.872 65.977,46.629C65.977,51.392 62.108,55.256 57.35,55.256C55.894,55.256 54.517,54.893 53.313,54.252Z" style="fill:rgb(21,94,83);"/>
            </g>
            <g transform="matrix(2.173956,0,0,4.166667,669.849528,1195.848208)">
                <path d="M74.374,7.811C74.374,6.797 74.775,5.824 75.49,5.107C76.204,4.39 77.18,3.987 78.19,3.987L101.563,3.987C119.544,3.987 134.128,18.565 134.128,36.548C134.128,45.184 130.695,53.466 124.58,59.572C118.481,65.679 110.205,69.109 101.563,69.109L30.217,69.109C13.56,69.109 0.039,55.587 0.039,38.932C0.039,22.896 12.567,9.765 28.371,8.809C28.684,8.77 28.928,8.506 28.928,8.19L28.928,3.522C28.928,2.546 29.329,1.615 30.044,0.951C30.758,0.286 31.716,-0.052 32.692,0.017L32.709,0.019C46.125,1.134 57.05,11.107 59.611,24.071L59.611,24.075C59.96,25.824 59.49,27.632 58.357,29.007C57.225,30.381 55.535,31.177 53.757,31.177L30.217,31.179C21.871,31.179 15.094,37.959 15.094,46.311C15.094,54.663 21.871,61.443 30.217,61.443L101.563,61.443C108.184,61.443 114.509,58.819 119.179,54.149C123.848,49.478 126.479,43.144 126.479,36.539C126.479,22.785 115.328,11.636 101.563,11.636L78.19,11.636C77.18,11.636 76.204,11.233 75.49,10.515C74.775,9.798 74.374,8.825 74.374,7.811ZM40.358,12.539C37.361,12.539 34.922,14.973 34.922,17.972C34.922,20.971 37.361,23.405 40.358,23.405C43.355,23.405 45.795,20.971 45.795,17.972C45.795,14.973 43.355,12.539 40.358,12.539Z" style="fill:rgb(42,148,132);"/>
            </g>
            <g transform="matrix(2.173956,0,0,4.166667,669.849528,1195.848208)">
                <path d="M48.524,54.252C47.321,54.893 45.948,55.256 44.492,55.256C42.747,55.256 41.117,54.735 39.761,53.842C41.312,51.86 42.237,49.368 42.237,46.661C42.237,43.932 41.301,41.425 39.73,39.438C41.096,38.534 42.731,38.008 44.492,38.008C45.948,38.008 47.321,38.365 48.524,39.007C48.982,39.248 49.407,39.527 49.812,39.843C50.212,40.158 50.58,40.505 50.916,40.883C52.283,42.408 53.119,44.421 53.119,46.629C53.119,48.837 52.283,50.856 50.916,52.38C50.58,52.759 50.212,53.106 49.812,53.416C49.407,53.731 48.982,54.015 48.524,54.252Z" style="fill:rgb(42,148,132);"/>
            </g>
            <g transform="matrix(2.173956,0,0,4.166667,669.849528,1195.848208)">
                <path d="M35.343,53.849C33.976,54.754 32.336,55.279 30.58,55.279C25.817,55.279 21.953,51.416 21.953,46.658C21.953,41.895 25.817,38.031 30.58,38.031C32.326,38.031 33.95,38.552 35.312,39.445C35.732,39.724 36.132,40.039 36.5,40.386C36.873,40.744 37.22,41.128 37.525,41.548C38.581,42.978 39.202,44.744 39.202,46.658C39.202,48.556 38.587,50.312 37.546,51.736C37.241,52.157 36.899,52.546 36.526,52.903C36.158,53.25 35.764,53.566 35.343,53.849Z" style="fill:rgb(23,170,148);"/>
            </g>
            <g transform="matrix(-0,1.310785,-0.683902,-0,1850.30788,-1149.540804)">
                <path d="M1880.786,1415.213L1905.134,1390.865L1929.846,1415.576" style="fill:none;stroke:rgb(42,148,132);stroke-width:21.82px;"/>
            </g>
        </g>
    </g>
</svg>
