<svg width="24" height="25" viewBox="0 0 24 25" fill="none" xmlns="http://www.w3.org/2000/svg">
<path d="M18.0423 21.8257L15.5999 19.4334C15.0166 19.6167 14.4249 19.7544 13.8249 19.8464C13.2249 19.9384 12.6166 19.9841 11.9999 19.9834C9.76658 19.9834 7.72492 19.3834 5.87492 18.1834C4.02492 16.9834 2.57492 15.4001 1.52492 13.4334C1.44158 13.2834 1.37925 13.1294 1.33792 12.9714C1.29658 12.8134 1.27558 12.6507 1.27492 12.4834C1.27425 12.3161 1.29525 12.1534 1.33792 11.9954C1.38058 11.8374 1.44292 11.6834 1.52492 11.5334C1.89158 10.8834 2.28325 10.2501 2.69992 9.63339C3.11658 9.01672 3.59992 8.46672 4.14992 7.98339L2.64992 6.45839C2.46658 6.27505 2.37492 6.04605 2.37492 5.77139C2.37492 5.49672 2.47492 5.25905 2.67492 5.05839C2.85825 4.87505 3.09158 4.78339 3.37492 4.78339C3.65825 4.78339 3.89158 4.87505 4.07492 5.05839L19.4423 20.4257C19.6256 20.6091 19.7216 20.8384 19.7303 21.1137C19.7389 21.3891 19.6429 21.6264 19.4423 21.8257C19.2589 22.0091 19.0256 22.1007 18.7423 22.1007C18.4589 22.1007 18.2256 22.0091 18.0423 21.8257ZM11.9999 16.9834C12.1833 16.9834 12.3583 16.9751 12.5249 16.9584C12.6916 16.9417 12.8583 16.9084 13.0249 16.8584L7.62492 11.4584C7.57492 11.6251 7.54158 11.7917 7.52492 11.9584C7.50825 12.1251 7.49992 12.3001 7.49992 12.4834C7.49992 13.7334 7.93758 14.7961 8.81292 15.6714C9.68825 16.5467 10.7506 16.9841 11.9999 16.9834ZM11.9999 4.98339C14.2333 4.98339 16.2793 5.58772 18.1379 6.79639C19.9966 8.00505 21.4506 9.59239 22.4999 11.5584C22.5833 11.6917 22.6459 11.8377 22.6879 11.9964C22.7299 12.1551 22.7506 12.3174 22.7499 12.4834C22.7493 12.6494 22.7326 12.8121 22.6999 12.9714C22.6673 13.1307 22.6089 13.2764 22.5249 13.4084C22.2083 14.0251 21.8543 14.6084 21.4629 15.1584C21.0716 15.7084 20.6339 16.2251 20.1499 16.7084C19.9166 16.9417 19.6416 17.0501 19.3249 17.0334C19.0083 17.0167 18.7333 16.8917 18.4999 16.6584L16.4999 14.6584C16.3833 14.5417 16.3083 14.4041 16.2749 14.2454C16.2416 14.0867 16.2499 13.9244 16.2999 13.7584C16.3666 13.5417 16.4166 13.3334 16.4499 13.1334C16.4833 12.9334 16.4999 12.7167 16.4999 12.4834C16.4999 11.2334 16.0626 10.1711 15.1879 9.29639C14.3133 8.42172 13.2506 7.98405 11.9999 7.98339C11.7666 7.98339 11.5499 8.00005 11.3499 8.03339C11.1499 8.06672 10.9416 8.11672 10.7249 8.18339C10.5583 8.23339 10.3916 8.24172 10.2249 8.20839C10.0583 8.17505 9.91658 8.10005 9.79992 7.98339L8.97492 7.15839C8.65825 6.84172 8.55425 6.47505 8.66292 6.05839C8.77158 5.64172 9.03392 5.37505 9.44992 5.25839C9.86658 5.17505 10.2876 5.10839 10.7129 5.05839C11.1383 5.00839 11.5673 4.98339 11.9999 4.98339ZM13.9749 10.6334C14.1583 10.8501 14.3123 11.0877 14.4369 11.3464C14.5616 11.6051 14.6409 11.8757 14.6749 12.1584C14.6916 12.2917 14.6416 12.3834 14.5249 12.4334C14.4083 12.4834 14.2999 12.4584 14.1999 12.3584L12.1499 10.3084C12.0499 10.2084 12.0293 10.1001 12.0879 9.98339C12.1466 9.86672 12.2423 9.80839 12.3749 9.80839C12.6916 9.84172 12.9833 9.92939 13.2499 10.0714C13.5166 10.2134 13.7583 10.4007 13.9749 10.6334Z" fill="black"/>
</svg>
