<svg width="18" height="19" viewBox="0 0 18 19" fill="none" xmlns="http://www.w3.org/2000/svg">
<path d="M1.02413 12.8504C0.757461 12.6504 0.628461 12.3881 0.637128 12.0634C0.645795 11.7387 0.783128 11.4761 1.04913 11.2754C1.23246 11.1421 1.43246 11.0754 1.64913 11.0754C1.86579 11.0754 2.06579 11.1421 2.24913 11.2754L8.99913 16.5004L15.7491 11.2754C15.9325 11.1421 16.1325 11.0754 16.3491 11.0754C16.5658 11.0754 16.7658 11.1421 16.9491 11.2754C17.2158 11.4754 17.3535 11.7377 17.3621 12.0624C17.3708 12.3871 17.2415 12.6497 16.9741 12.8504L10.2241 18.1004C9.85746 18.3837 9.44913 18.5254 8.99913 18.5254C8.54913 18.5254 8.14079 18.3837 7.77413 18.1004L1.02413 12.8504ZM7.77413 13.0504L2.02413 8.57539C1.50746 8.17539 1.24913 7.65039 1.24913 7.00039C1.24913 6.35039 1.50746 5.82539 2.02413 5.42539L7.77413 0.950391C8.14079 0.667057 8.54913 0.525391 8.99913 0.525391C9.44913 0.525391 9.85746 0.667057 10.2241 0.950391L15.9741 5.42539C16.4908 5.82539 16.7491 6.35039 16.7491 7.00039C16.7491 7.65039 16.4908 8.17539 15.9741 8.57539L10.2241 13.0504C9.85746 13.3337 9.44913 13.4754 8.99913 13.4754C8.54913 13.4754 8.14079 13.3337 7.77413 13.0504Z" fill="black"/>
</svg>
