<svg width="378" height="70" viewBox="0 0 378 70" fill="none" xmlns="http://www.w3.org/2000/svg">
<g clip-path="url(#clip0_18619_8219)">
<path fill-rule="evenodd" clip-rule="evenodd" d="M53.313 54.2518C55.0846 52.2121 56.1571 49.5416 56.1571 46.6292C56.1571 43.7169 55.0846 41.0516 53.313 39.0066C54.5168 38.3653 55.8941 38.0078 57.3503 38.0078C62.1078 38.0078 65.9771 41.8717 65.9771 46.6292C65.9771 51.392 62.1078 55.2559 57.3503 55.2559C55.8941 55.2559 54.5168 54.8931 53.313 54.2518Z" fill="#155E53"/>
<path fill-rule="evenodd" clip-rule="evenodd" d="M245.211 7.81129C245.211 6.79684 245.612 5.82442 246.327 5.10714C247.041 4.39015 248.017 3.98716 249.027 3.98716C267.357 3.98716 345.295 3.98716 345.295 3.98716C363.276 3.98716 377.86 18.5655 377.86 36.5483C377.86 45.184 374.427 53.4661 368.312 59.5725C362.213 65.6789 353.937 69.1094 345.295 69.1094L30.217 69.1094C13.5597 69.1094 0.0390392 55.5872 0.0390392 38.9317C0.0390392 22.8956 12.5673 9.76453 28.3708 8.80923C28.6845 8.76951 28.9281 8.50597 28.9281 8.18995V8.18327C28.9281 6.82352 28.9281 4.97174 28.9281 3.52153C28.9281 2.5465 29.3291 1.61526 30.0435 0.950746C30.7579 0.286233 31.7162 -0.051813 32.6919 0.0171896L32.709 0.0186407C46.1254 1.13399 57.0501 11.1072 59.6114 24.0713V24.0747C59.9599 25.8236 59.49 27.6324 58.3574 29.007C57.2248 30.3812 55.5345 31.1774 53.7572 31.1774L30.217 31.1788C21.871 31.1788 15.0936 37.9593 15.0936 46.311C15.0936 54.6626 21.871 61.4431 30.217 61.4431L345.295 61.4431C351.916 61.4431 358.241 58.8193 362.911 54.1489C367.58 49.4784 370.211 43.1441 370.211 36.5393C370.211 22.7854 359.06 11.6357 345.295 11.6357C345.295 11.6357 267.357 11.6357 249.027 11.6357C248.017 11.6357 247.041 11.2327 246.327 10.5154C245.612 9.79846 245.211 8.82546 245.211 7.81129ZM40.3583 12.5388C37.3614 12.5388 34.9218 14.9734 34.9218 17.9718C34.9218 20.9705 37.3614 23.405 40.3583 23.405C43.3552 23.405 45.7948 20.9705 45.7948 17.9718C45.7948 14.9734 43.3552 12.5388 40.3583 12.5388Z" fill="#2A9484"/>
<path fill-rule="evenodd" clip-rule="evenodd" d="M48.5244 54.2518C47.3205 54.8931 45.9484 55.2559 44.4922 55.2559C42.7469 55.2559 41.1172 54.7354 39.7609 53.8417C41.3117 51.8599 42.2371 49.3681 42.2371 46.6608C42.2371 43.9324 41.3013 41.4249 39.7295 39.4378C41.0963 38.5336 42.7311 38.0078 44.4922 38.0078C45.9484 38.0078 47.3205 38.3653 48.5244 39.0066C48.9817 39.2485 49.4075 39.5271 49.8123 39.8425C50.2118 40.158 50.5799 40.5049 50.9163 40.8834C52.2831 42.4079 53.119 44.4213 53.119 46.6292C53.119 48.8371 52.2831 50.8558 50.9163 52.3804C50.5799 52.7589 50.2118 53.1058 49.8123 53.416C49.4075 53.7314 48.9817 54.0152 48.5244 54.2518Z" fill="#2A9484"/>
<path fill-rule="evenodd" clip-rule="evenodd" d="M35.343 53.8494C33.9762 54.7536 32.3361 55.2793 30.5803 55.2793C25.8175 55.2793 21.9535 51.4155 21.9535 46.6579C21.9535 41.8951 25.8175 38.0312 30.5803 38.0312C32.3256 38.0312 33.95 38.5517 35.3116 39.4454C35.7321 39.724 36.1317 40.0394 36.4996 40.3864C36.8729 40.7438 37.2198 41.1276 37.5247 41.5482C38.5814 42.9781 39.2017 44.7444 39.2017 46.6579C39.2017 48.5557 38.5866 50.3115 37.5458 51.7361C37.2409 52.1566 36.8991 52.5457 36.5258 52.9032C36.1578 53.2501 35.7636 53.5655 35.343 53.8494Z" fill="#17AA94"/>
<path d="M83.6885 54.0007H74.7668V7.88281H83.6885V54.0007Z" fill="#2B2B2B"/>
<path d="M104.041 47.4124C109.463 47.4124 112.208 43.981 112.208 37.1182C112.208 30.2555 109.463 26.8927 104.041 26.8927C98.6198 26.8927 95.8747 30.2555 95.8747 37.1182C95.8747 43.981 98.6198 47.4124 104.041 47.4124ZM104.041 54.8928C93.1296 54.8928 86.6786 47.6183 86.6786 37.1182C86.6786 26.4123 93.3355 19.3437 104.041 19.3437C114.61 19.3437 121.198 26.3437 121.198 37.1182C121.198 47.8242 114.541 54.8928 104.041 54.8928Z" fill="#2B2B2B"/>
<path d="M143.575 40.5496V31.7653H151.879V41.3732C151.879 48.5104 147.762 54.8928 138.222 54.8928C128.34 54.8928 124.428 48.5791 124.428 41.3045V11.1083H133.213V20.2358H151.879V26.5496H133.213V40.4124C133.213 44.6673 134.722 47.1379 138.36 47.1379C141.928 47.1379 143.575 44.7359 143.575 40.5496Z" fill="#2B2B2B"/>
<path d="M174.672 40.5496V31.7653H182.976V41.3732C182.976 48.5104 178.859 54.8928 169.319 54.8928C159.437 54.8928 155.525 48.5791 155.525 41.3045V11.1083H164.309V20.2358H182.976V26.5496H164.309V40.4124C164.309 44.6673 165.819 47.1379 169.457 47.1379C173.025 47.1379 174.672 44.7359 174.672 40.5496Z" fill="#2B2B2B"/>
<path d="M195.75 54.0007H186.828V20.2358H195.75V54.0007ZM195.75 16.1868H186.828V7.88281H195.75V16.1868Z" fill="#2B2B2B"/>
<path d="M208.266 33.8241H222.06C221.923 28.8143 218.629 26.4123 215.129 26.4123C211.56 26.4123 208.609 29.1574 208.266 33.8241ZM231.256 39.4516H207.992C208.266 44.53 211.148 47.8242 215.541 47.8242C218.423 47.8242 220.962 46.383 221.58 44.0496H230.776C228.717 50.981 223.158 54.8928 215.952 54.8928C204.697 54.8928 199.07 48.7163 199.07 36.5006C199.07 26.0692 205.041 19.3437 215.403 19.3437C225.766 19.3437 231.256 26.0692 231.256 39.4516Z" fill="#2B2B2B"/>
<path d="M286.541 53.743V30.3409C286.541 24.0271 281.805 19.0859 275.011 19.0859C270.756 19.0859 267.736 20.733 265.884 24.4389C263.276 20.5271 261.08 19.0859 256.482 19.0859C252.021 19.0859 248.864 20.4585 246.599 24.9193V19.9781H238.227V53.743H247.148V33.2233C247.148 28.8311 249.001 26.635 252.57 26.635C256.482 26.635 257.923 28.0075 257.923 33.4291V53.743H266.844V33.5664C266.844 29.4487 269.246 26.3605 272.54 26.3605C275.697 26.3605 277.825 29.2428 277.825 33.2919V53.743H286.541Z" fill="#2A9484"/>
<path d="M306.535 47.1547C301.113 47.1547 298.368 43.7233 298.368 36.8605C298.368 29.9978 301.113 26.635 306.535 26.635C311.956 26.635 314.701 29.9978 314.701 36.8605C314.701 43.7233 311.956 47.1547 306.535 47.1547ZM306.535 54.6351C317.035 54.6351 323.692 47.5665 323.692 36.8605C323.692 26.086 317.103 19.0859 306.535 19.0859C295.829 19.0859 289.172 26.1546 289.172 36.8605C289.172 47.3606 295.623 54.6351 306.535 54.6351Z" fill="#2A9484"/>
<path d="M357.536 51.4096C356.575 52.3018 355.546 53.0567 354.379 53.743H348.545V33.2919C348.545 28.0762 347.036 26.635 342.781 26.635C338.114 26.635 335.849 29.2428 335.849 34.3899V53.743H326.928V19.9781H335.438V24.9193C337.496 21.1448 340.928 19.0859 346.349 19.0859C352.8 19.0859 357.536 22.9977 357.536 30.3409V51.4096Z" fill="#2A9484"/>
</g>
<defs>
<clipPath id="clip0_18619_8219">
<rect width="378" height="70" fill="white"/>
</clipPath>
</defs>
</svg>
