<?xml version="1.0" encoding="UTF-8" standalone="no"?>
<!DOCTYPE svg PUBLIC "-//W3C//DTD SVG 1.1//EN" "http://www.w3.org/Graphics/SVG/1.1/DTD/svg11.dtd">
<svg width="100%" height="100%" viewBox="0 0 292 285" version="1.1" xmlns="http://www.w3.org/2000/svg" xmlns:xlink="http://www.w3.org/1999/xlink" xml:space="preserve" xmlns:serif="http://www.serif.com/" style="fill-rule:evenodd;clip-rule:evenodd;stroke-linejoin:round;stroke-miterlimit:2;">
    <g transform="matrix(1,0,0,1,-3367.157812,-2499)">
        <g id="Artboard2" transform="matrix(0.908991,0,0,1,332.479452,-0.442464)">
            <rect x="3338.513" y="2499.442" width="320.384" height="284.649" style="fill:none;"/>
            <g transform="matrix(1.005253,0,0,1,-19.22068,7.153367)">
                <g transform="matrix(1.094372,0,0,1,3302.562694,2431.208825)">
                    <path d="M83.504,323.483C82.153,323.473 79.665,323.771 76.998,323.539C74.769,323.346 72.358,322.797 70.635,321.042C69.14,319.521 68.245,317.127 68.24,313.495C68.228,305.759 68.079,218.825 68.303,216.799C68.817,212.154 71.66,210.254 75.054,209.5C79.197,208.579 84.043,209.122 87.478,209.154C91.066,209.187 93.466,209.585 94.991,211.125C95.965,212.108 96.523,213.524 96.919,215.418C98.166,221.39 97.568,231.377 97.568,247.5C97.568,255.362 97.408,260.953 97.632,264.045C97.772,265.994 98.194,267.226 98.609,267.798L98.968,268.211L99.479,268.602L100.376,268.944L101.086,268.985L101.708,268.871L102.295,268.628L102.937,268.192C107.957,264.034 107.219,263.352 160.436,210.455C162.372,208.53 164.229,207.616 166.038,207.491C167.839,207.367 169.542,208.008 171.135,208.957C174.976,211.246 178.186,215.291 180.434,217.554C182.652,219.787 184.006,221.619 184.306,223.537C184.586,225.332 183.849,227.102 182.376,229.259C178.645,234.725 170.502,241.917 158.209,254.209C141.206,271.212 141.413,271.314 124.156,288.061C123.501,288.697 123.118,289.285 122.943,289.742L122.753,290.572L122.786,291.261L123.043,292.027L123.47,292.642L124.036,293.124L124.819,293.515C125.541,293.783 126.879,293.997 129.031,294.089C133.215,294.269 141.057,294.144 154.5,294.144C161.869,294.144 168.124,293.757 172.987,294.193C176.084,294.471 178.553,295.023 180.22,296.507C181.805,297.916 182.511,300.154 182.547,303.522C182.6,308.533 182.671,312.491 182.286,315.579C181.975,318.066 181.426,319.902 180.036,321.132C177.962,322.968 174.404,323.47 168.497,323.483L83.504,323.483Z" style="fill:white;"/>
                </g>
                <g transform="matrix(1.094372,0,0,1,3290.40192,2442.320928)">
                    <path d="M286.5,72.135C298.754,72.135 305.737,71.922 310.135,72.276C313.686,72.561 315.194,73.194 316.737,75.003C317.663,76.089 318.007,76.854 318.282,81.25C318.788,89.322 318.652,107.513 318.652,152.5C318.652,164.053 319.223,172.901 318.207,178.903C317.787,181.384 317.131,183.314 315.848,184.605C314.637,185.822 312.882,186.37 310.447,186.437C305.104,186.586 301.01,186.713 297.815,186.366C293.867,185.936 291.534,184.727 289.955,181.367C289.746,180.922 289.634,180.044 289.501,178.856C289.249,176.597 289.098,173.423 289.016,169.773C288.688,155.308 289.446,133.504 289.547,130.614C289.584,129.547 289.493,128.738 289.321,128.233L288.878,127.381L288.282,126.792L287.782,126.505L287.242,126.333L286.266,126.302C285.71,126.379 284.821,126.721 283.656,127.671C279.174,131.324 265.589,146.991 225.758,185.699C222.148,189.208 218.397,188.252 215.195,186.173C211.276,183.628 208.044,179.537 206.28,177.746C203.757,175.183 202.6,172.966 202.604,170.818C202.608,168.673 203.739,166.703 205.347,164.681C207.928,161.433 211.743,158.171 215.458,154.461C261.844,108.147 262.192,108.487 263.376,106.893L263.819,106.175L264.057,105.536L264.154,104.854L264.065,104.067L263.745,103.312L263.278,102.73L262.681,102.277L261.853,101.908C259.903,101.269 253.923,101.473 242.5,101.473C227.583,101.473 217.663,102.048 211.446,100.927C208.95,100.478 207.146,99.802 206.006,98.461C204.858,97.11 204.446,95.166 204.403,92.47C204.309,86.707 204.117,82.544 204.601,79.367C204.994,76.786 205.881,74.984 207.937,73.507C208.89,72.823 209.542,72.612 213.987,72.408C222.064,72.037 240.567,72.135 286.5,72.135Z" style="fill:white;"/>
                </g>
            </g>
        </g>
    </g>
</svg>
