<?xml version="1.0" encoding="UTF-8" standalone="no"?>
<!DOCTYPE svg PUBLIC "-//W3C//DTD SVG 1.1//EN" "http://www.w3.org/Graphics/SVG/1.1/DTD/svg11.dtd">
<svg width="100%" height="100%" viewBox="0 0 283 229" version="1.1" xmlns="http://www.w3.org/2000/svg" xmlns:xlink="http://www.w3.org/1999/xlink" xml:space="preserve" xmlns:serif="http://www.serif.com/" style="fill-rule:evenodd;clip-rule:evenodd;stroke-linejoin:round;stroke-miterlimit:2;">
    <g transform="matrix(1,0,0,1,-4086.014019,-2114.370718)">
        <g id="Artboard3" transform="matrix(0.965714,0,0,0.895425,144.812506,232.971161)">
            <rect x="4081.126" y="2101.125" width="292.484" height="255.715" style="fill:none;"/>
            <g transform="matrix(1.350501,0,0,-1.456514,4011.118799,2393.109224)">
                <path d="M209.216,135.441C203.451,141.182 193.579,151.049 179.355,165.381C173.441,171.34 173.198,177.116 174.976,181.219C177.822,187.79 186.984,191.082 194.084,186.547C196.157,185.223 244.225,136.886 248.545,132.527C256.132,124.873 252.077,117.05 249.966,114.554C246.075,109.954 245.873,110.167 196.786,61.208C191.569,56.004 185.381,55.734 180.904,58.054C176.322,60.429 173.15,65.721 174.495,72.512C174.928,74.696 175.213,76.03 179.155,80.146C182.886,84.043 191.009,91.677 209.333,109.809C204.162,109.873 196.567,109.935 186.5,109.935C159.03,109.935 142.022,110.418 130.01,109.326C119.121,108.336 112.728,106.019 105.942,100.362C93.636,90.104 93.869,77.802 92.734,69.922C92.026,65.004 90.613,61.339 88.033,59.186C86.034,57.518 83.274,56.466 79.162,56.761C72.773,57.218 69.6,61.083 68.168,65.659C66.563,70.786 67.659,76.976 67.668,77.056C68.008,80.007 67.753,78.782 68.311,81.522C68.781,83.833 71.984,99.144 79.093,108.967C79.95,110.151 84.457,116.383 91.945,121.941C103.915,130.826 115.215,134.252 134.369,135.358C150.988,136.317 173.859,135.521 209.216,135.441Z" style="fill:white;"/>
            </g>
        </g>
    </g>
</svg>
