<svg width="24" height="24" viewBox="0 0 24 24" fill="none" xmlns="http://www.w3.org/2000/svg">
<path d="M10.4491 15.5C10.8491 15.9 11.3658 16.096 11.9991 16.088C12.6325 16.08 13.0991 15.8507 13.3991 15.4L17.6241 9.075C17.7741 8.84167 17.7535 8.629 17.5621 8.437C17.3708 8.245 17.1581 8.22433 16.9241 8.375L10.5991 12.6C10.1491 12.9 9.91181 13.3583 9.88715 13.975C9.86248 14.5917 10.0498 15.1 10.4491 15.5ZM11.9991 4C12.5991 4 13.1908 4.05 13.7741 4.15C14.3575 4.25 14.9241 4.40833 15.4741 4.625C15.7408 4.725 16.0241 4.91267 16.3241 5.188C16.6241 5.46333 16.7075 5.72567 16.5741 5.975C16.4408 6.22433 16.1408 6.391 15.6741 6.475C15.2075 6.559 14.8325 6.55067 14.5491 6.45C14.1325 6.3 13.7118 6.18767 13.2871 6.113C12.8625 6.03833 12.4331 6.00067 11.9991 6C9.78248 6 7.89481 6.77933 6.33615 8.338C4.77748 9.89667 3.99848 11.784 3.99915 14C3.99915 14.7 4.09515 15.3917 4.28715 16.075C4.47915 16.7583 4.74981 17.4 5.09915 18H18.8991C19.2825 17.3667 19.5618 16.7083 19.7371 16.025C19.9125 15.3417 19.9998 14.6333 19.9991 13.9C19.9991 13.4667 19.9615 13.0417 19.8861 12.625C19.8108 12.2083 19.6985 11.8 19.5491 11.4C19.4491 11.1167 19.4325 10.8417 19.4991 10.575C19.5658 10.3083 19.7158 10.0833 19.9491 9.9C20.1658 9.73333 20.4035 9.68333 20.6621 9.75C20.9208 9.81667 21.0998 9.96667 21.1991 10.2C21.4491 10.7833 21.6408 11.3793 21.7741 11.988C21.9075 12.5967 21.9825 13.2173 21.9991 13.85C22.0158 14.8 21.9075 15.7083 21.6741 16.575C21.4408 17.4417 21.0991 18.2667 20.6491 19.05C20.4658 19.35 20.2158 19.5833 19.8991 19.75C19.5825 19.9167 19.2491 20 18.8991 20H5.09915C4.74915 20 4.41581 19.9167 4.09915 19.75C3.78248 19.5833 3.53248 19.35 3.34915 19.05C2.91581 18.3 2.58248 17.5043 2.34915 16.663C2.11581 15.8217 1.99915 14.934 1.99915 14C1.99915 12.6167 2.26181 11.321 2.78715 10.113C3.31248 8.905 4.02915 7.84667 4.93715 6.938C5.84515 6.02933 6.90748 5.31267 8.12415 4.788C9.34081 4.26333 10.6325 4.00067 11.9991 4Z" fill="black"/>
</svg>
