<svg width="24" height="24" viewBox="0 0 24 24" fill="none" xmlns="http://www.w3.org/2000/svg">
<path d="M3 13.75C3.22534 13.75 3.4412 13.8397 3.60059 13.999C3.7599 14.1583 3.84951 14.3743 3.84961 14.5996C3.84961 15.7332 3.85077 16.5332 3.90137 17.1582L3.94824 17.5752C4.00295 17.9518 4.08339 18.2143 4.19336 18.4307L4.31445 18.6475C4.61704 19.1408 5.05089 19.5424 5.56934 19.8066L5.68164 19.8594C5.95427 19.9766 6.30492 20.0553 6.8418 20.0986L7.3457 20.1279C7.88708 20.1497 8.55008 20.1504 9.40039 20.1504C9.62568 20.1505 9.84166 20.2401 10.001 20.3994C10.1603 20.5588 10.25 20.7747 10.25 21C10.25 21.2253 10.1603 21.4412 10.001 21.6006C9.86159 21.74 9.67882 21.8263 9.48438 21.8457L9.40039 21.8496H9.36719C8.54932 21.8496 7.85487 21.8504 7.2627 21.8262L6.7041 21.793C6.07394 21.7418 5.52141 21.6402 5.01367 21.4219L4.79883 21.3213C3.9429 20.8857 3.23697 20.2062 2.76855 19.3711L2.67773 19.2021C2.42553 18.7049 2.29923 18.17 2.23242 17.5615L2.20703 17.2959C2.14965 16.5939 2.15039 15.7231 2.15039 14.6328V14.5996C2.15049 14.3743 2.2401 14.1583 2.39941 13.999C2.5588 13.8397 2.77466 13.75 3 13.75ZM21 13.75C21.2253 13.75 21.4412 13.8397 21.6006 13.999C21.7599 14.1583 21.8495 14.3743 21.8496 14.5996V14.6328C21.8496 15.4507 21.8504 16.1451 21.8262 16.7373L21.793 17.2959C21.7418 17.926 21.6401 18.4776 21.4219 18.9863L21.3213 19.2021C20.8856 20.0577 20.2061 20.7633 19.3711 21.2314L19.2021 21.3223C18.7049 21.5745 18.17 21.7008 17.5615 21.7676L17.2959 21.793C16.5939 21.8504 15.7231 21.8496 14.6328 21.8496H14.5996C14.3743 21.8495 14.1583 21.7599 13.999 21.6006C13.8397 21.4412 13.75 21.2253 13.75 21C13.75 20.7747 13.8397 20.5588 13.999 20.3994C14.1583 20.2401 14.3743 20.1505 14.5996 20.1504C15.7332 20.1504 16.5332 20.1492 17.1582 20.0986L17.5752 20.0518C17.9518 19.997 18.2143 19.9166 18.4307 19.8066L18.6475 19.6855C19.1408 19.383 19.5424 18.9491 19.8066 18.4307L19.8594 18.3184C19.9766 18.0457 20.0553 17.6951 20.0986 17.1582L20.1279 16.6543C20.1497 16.1132 20.1504 15.4506 20.1504 14.5996C20.1505 14.3743 20.2401 14.1583 20.3994 13.999C20.5588 13.8397 20.7747 13.75 21 13.75ZM12 8.15039C13.0211 8.15039 14.0006 8.55533 14.7227 9.27734C15.4447 9.99936 15.8496 10.9789 15.8496 12C15.8496 13.0211 15.4447 14.0006 14.7227 14.7227C14.0006 15.4447 13.0211 15.8496 12 15.8496C10.9789 15.8496 9.99936 15.4447 9.27734 14.7227C8.55533 14.0006 8.15039 13.0211 8.15039 12C8.15039 10.9789 8.55533 9.99936 9.27734 9.27734C9.99936 8.55533 10.9789 8.15039 12 8.15039ZM9.40039 2.15039C9.62568 2.15049 9.84166 2.2401 10.001 2.39941C10.1603 2.5588 10.25 2.77466 10.25 3C10.25 3.22534 10.1603 3.4412 10.001 3.60059C9.84166 3.7599 9.62568 3.84951 9.40039 3.84961C8.55003 3.84961 7.88739 3.85041 7.3457 3.87207L6.8418 3.90137C6.30479 3.94556 5.95418 4.02366 5.68164 4.14062L5.56934 4.19336C5.05089 4.4576 4.61704 4.85924 4.31445 5.35254L4.19336 5.56934C4.08335 5.7858 4.00182 6.04822 3.94727 6.4248L3.90137 6.8418C3.84979 7.4657 3.84961 8.26662 3.84961 9.40039C3.84951 9.62568 3.7599 9.84166 3.60059 10.001C3.4412 10.1603 3.22534 10.25 3 10.25C2.77466 10.25 2.5588 10.1603 2.39941 10.001C2.2401 9.84166 2.15049 9.62568 2.15039 9.40039V9.36719C2.15039 8.27688 2.14965 7.40605 2.20703 6.7041L2.23242 6.43848C2.29923 5.82995 2.42559 5.29441 2.67871 4.79883L2.76953 4.62988C3.2374 3.79418 3.94297 3.11396 4.79883 2.67773L5.01367 2.57715C5.52186 2.35948 6.07377 2.25823 6.7041 2.20703L7.2627 2.17383C7.85487 2.14963 8.54932 2.15039 9.36719 2.15039H9.40039ZM14.6328 2.15039C15.7231 2.15039 16.5939 2.14965 17.2959 2.20703L17.5615 2.23242C18.17 2.29924 18.7049 2.42562 19.2021 2.67871L19.3711 2.76953C20.2064 3.23754 20.8863 3.94312 21.3223 4.79883L21.4229 5.01367C21.6405 5.52186 21.7418 6.07377 21.793 6.7041L21.8262 7.2627C21.8504 7.85487 21.8496 8.54932 21.8496 9.36719V9.40039C21.8495 9.62568 21.7599 9.84166 21.6006 10.001C21.4412 10.1603 21.2253 10.25 21 10.25C20.7747 10.25 20.5588 10.1603 20.3994 10.001C20.2401 9.84166 20.1505 9.62568 20.1504 9.40039C20.1504 8.55003 20.1496 7.88739 20.1279 7.3457L20.0986 6.8418C20.0544 6.30479 19.9763 5.95418 19.8594 5.68164L19.8066 5.56934C19.5424 5.05089 19.1408 4.61704 18.6475 4.31445L18.4307 4.19336C18.2142 4.08335 17.9518 4.00182 17.5752 3.94727L17.1582 3.90137C16.8462 3.87557 16.49 3.86291 16.0703 3.85645L14.5996 3.84961C14.3743 3.84951 14.1583 3.7599 13.999 3.60059C13.8397 3.4412 13.75 3.22534 13.75 3C13.75 2.77466 13.8397 2.5588 13.999 2.39941C14.1583 2.2401 14.3743 2.15049 14.5996 2.15039H14.6328Z" fill="black" stroke="black" stroke-width="0.2"/>
</svg>
