<svg width="15" height="15" viewBox="0 0 15 15" fill="none" xmlns="http://www.w3.org/2000/svg">
<path d="M4.34169 3.22103L7.49984 6.37917L10.6416 3.23739C10.711 3.16353 10.7946 3.10443 10.8874 3.06366C10.9802 3.02289 11.0803 3.00128 11.1816 3.00012C11.3986 3.00012 11.6067 3.08632 11.7601 3.23976C11.9136 3.3932 11.9998 3.6013 11.9998 3.81829C12.0017 3.9186 11.9831 4.01825 11.9451 4.1111C11.9071 4.20396 11.8505 4.28808 11.7789 4.35829L8.59619 7.50007L11.7789 10.6828C11.9137 10.8147 11.9928 10.9933 11.9998 11.1818C11.9998 11.3988 11.9136 11.6069 11.7601 11.7604C11.6067 11.9138 11.3986 12 11.1816 12C11.0773 12.0043 10.9733 11.9869 10.8761 11.9489C10.7789 11.9109 10.6907 11.8531 10.6171 11.7791L7.49984 8.62097L4.34987 11.7709C4.28074 11.8423 4.19816 11.8993 4.10688 11.9387C4.0156 11.978 3.91744 11.9988 3.81806 12C3.60107 12 3.39296 11.9138 3.23953 11.7604C3.08609 11.6069 2.99989 11.3988 2.99989 11.1818C2.99798 11.0815 3.01659 10.9819 3.05458 10.889C3.09257 10.7962 3.14913 10.7121 3.2208 10.6419L6.40349 7.50007L3.2208 4.31738C3.08595 4.18546 3.00688 4.00681 2.99989 3.81829C2.99989 3.6013 3.08609 3.3932 3.23953 3.23976C3.39296 3.08632 3.60107 3.00012 3.81806 3.00012C4.01442 3.00258 4.2026 3.08194 4.34169 3.22103Z" fill="white"/>
</svg>
