<svg width="24" height="24" viewBox="0 0 24 24" fill="none" xmlns="http://www.w3.org/2000/svg">
<path d="M7 11C7 8.172 7 6.757 7.879 5.879C8.757 5 10.172 5 13 5H16C18.828 5 20.243 5 21.121 5.879C22 6.757 22 8.172 22 11V16C22 18.828 22 20.243 21.121 21.121C20.243 22 18.828 22 16 22H13C10.172 22 8.757 22 7.879 21.121C7 20.243 7 18.828 7 16V11Z" stroke="white" stroke-width="2"/>
<path d="M6 18C5.20435 18 4.44129 17.6839 3.87868 17.1213C3.31607 16.5587 3 15.7956 3 15V9C3 5.229 3 3.343 4.172 2.172C5.344 1.001 7.229 1 11 1H15C15.7956 1 16.5587 1.31607 17.1213 1.87868C17.6839 2.44129 18 3.20435 18 4" stroke="white" stroke-width="2"/>
</svg>
