<svg width="24" height="24" viewBox="0 0 24 24" fill="none" xmlns="http://www.w3.org/2000/svg">
<path d="M5 21C4.45 21 3.97933 20.8043 3.588 20.413C3.19667 20.0217 3.00067 19.5507 3 19V5C3 4.45 3.196 3.97933 3.588 3.588C3.98 3.19667 4.45067 3.00067 5 3H16.175C16.4417 3 16.696 3.05 16.938 3.15C17.18 3.25 17.3923 3.39167 17.575 3.575L20.425 6.425C20.6083 6.60833 20.75 6.821 20.85 7.063C20.95 7.305 21 7.559 21 7.825V19C21 19.55 20.8043 20.021 20.413 20.413C20.0217 20.805 19.5507 21.0007 19 21H5ZM12 18C12.8333 18 13.5417 17.7083 14.125 17.125C14.7083 16.5417 15 15.8333 15 15C15 14.1667 14.7083 13.4583 14.125 12.875C13.5417 12.2917 12.8333 12 12 12C11.1667 12 10.4583 12.2917 9.875 12.875C9.29167 13.4583 9 14.1667 9 15C9 15.8333 9.29167 16.5417 9.875 17.125C10.4583 17.7083 11.1667 18 12 18ZM7 10H14C14.2833 10 14.521 9.904 14.713 9.712C14.905 9.52 15.0007 9.28267 15 9V7C15 6.71667 14.904 6.47933 14.712 6.288C14.52 6.09667 14.2827 6.00067 14 6H7C6.71667 6 6.47933 6.096 6.288 6.288C6.09667 6.48 6.00067 6.71733 6 7V9C6 9.28333 6.096 9.521 6.288 9.713C6.48 9.905 6.71733 10.0007 7 10Z" fill="white"/>
</svg>
