<svg width="191" height="192" viewBox="0 0 191 192" fill="none" xmlns="http://www.w3.org/2000/svg">
<path fill-rule="evenodd" clip-rule="evenodd" d="M95.5796 19.4249C98.3597 18.869 101.227 18.9137 103.988 19.5559C106.749 20.1982 109.342 21.4232 111.591 23.1489C113.841 24.8746 115.695 27.0611 117.031 29.562C118.366 32.0629 119.152 34.8203 119.335 37.6495L119.375 38.9308V43.3159C131.336 40.9284 142.454 49.6189 143.21 61.5245L143.25 62.8058V67.1829C155.211 64.7954 166.329 73.4939 167.085 85.3995L167.125 86.6888V138.657C167.125 143.934 165.377 149.063 162.153 153.242C158.929 157.42 154.411 160.413 149.306 161.752L147.929 162.07L95.4204 172.575C92.6403 173.131 89.7735 173.086 87.012 172.444C84.2506 171.802 81.6583 170.577 79.4088 168.851C77.1594 167.125 75.3047 164.939 73.9692 162.438C72.6336 159.937 71.8479 157.18 71.6648 154.351L71.625 153.061V148.684L71.5454 148.7C68.7653 149.256 65.8985 149.211 63.137 148.569C60.3756 147.927 57.7833 146.702 55.5338 144.976C53.2844 143.25 51.4297 141.064 50.0942 138.563C48.7586 136.062 47.9729 133.305 47.7898 130.476L47.75 129.186V124.809L47.6704 124.825C44.8903 125.381 42.0235 125.336 39.262 124.694C36.5006 124.052 33.9083 122.827 31.6588 121.101C29.4094 119.375 27.5547 117.189 26.2192 114.688C24.8836 112.187 24.0979 109.43 23.9148 106.601L23.875 105.311V53.3434C23.8743 48.0667 25.6217 42.9386 28.844 38.7602C32.0664 34.5817 36.5822 31.5885 41.6857 30.2483L43.0705 29.9299L95.5796 19.4249ZM146.449 82.7812L93.9402 93.2862C92.1367 93.6467 90.5138 94.6207 89.3473 96.0425C88.1808 97.4643 87.5428 99.2463 87.5417 101.085V153.061C87.542 153.65 87.6729 154.231 87.9249 154.763C88.1769 155.294 88.5436 155.764 88.9988 156.137C89.454 156.51 89.9863 156.777 90.5572 156.92C91.1282 157.062 91.7237 157.076 92.3007 156.961L144.81 146.456C146.613 146.095 148.236 145.121 149.403 143.7C150.569 142.278 151.207 140.496 151.208 138.657V86.6888C151.208 86.1003 151.077 85.5192 150.825 84.9874C150.573 84.4556 150.206 83.9863 149.751 83.6133C149.296 83.2403 148.764 82.973 148.193 82.8304C147.622 82.6879 147.026 82.6739 146.449 82.7892M122.574 58.9142L70.0652 69.4192C68.2617 69.7797 66.6388 70.7536 65.4723 72.1754C64.3058 73.5973 63.6678 75.3793 63.6667 77.2184V129.194C63.667 129.783 63.7979 130.364 64.0499 130.896C64.3019 131.427 64.6686 131.897 65.1238 132.27C65.579 132.643 66.1113 132.91 66.6822 133.053C67.2532 133.195 67.8487 133.209 68.4257 133.094L71.625 132.449V101.093C71.6247 95.5733 73.5371 90.2237 77.0369 85.9549C80.5367 81.6861 85.4075 78.7619 90.8205 77.6799L127.333 70.3742V62.8138C127.333 62.2253 127.202 61.6442 126.95 61.1124C126.698 60.5806 126.331 60.1113 125.876 59.7383C125.421 59.3653 124.889 59.098 124.318 58.9554C123.747 58.8129 123.151 58.7989 122.574 58.9142ZM98.6993 35.0392L46.1902 45.5442C44.3867 45.9047 42.7638 46.8786 41.5973 48.3005C40.4308 49.7223 39.7928 51.5043 39.7917 53.3434V105.319C39.792 105.908 39.9229 106.489 40.1749 107.021C40.4268 107.552 40.7936 108.022 41.2488 108.395C41.704 108.768 42.2363 109.035 42.8072 109.178C43.3782 109.32 43.9737 109.334 44.5508 109.219L47.75 108.574V77.2184C47.7497 71.6983 49.6621 66.3487 53.1619 62.0799C56.6617 57.8111 61.5325 54.8869 66.9455 53.8049L103.458 46.4992V38.9388C103.458 38.3503 103.327 37.7692 103.075 37.2374C102.823 36.7056 102.456 36.2363 102.001 35.8633C101.546 35.4903 101.014 35.223 100.443 35.0804C99.8718 34.9379 99.2763 34.9239 98.6993 35.0392Z" fill="white"/>
</svg>
