<svg width="24" height="24" viewBox="0 0 24 24" fill="none" xmlns="http://www.w3.org/2000/svg">
<path d="M10.45 13.5C10.85 13.9 11.3667 14.096 12 14.088C12.6333 14.08 13.1 13.8507 13.4 13.4L17.625 7.075C17.775 6.84167 17.7543 6.629 17.563 6.437C17.3717 6.245 17.159 6.22433 16.925 6.375L10.6 10.6C10.15 10.9 9.91267 11.3583 9.888 11.975C9.86333 12.5917 10.0507 13.1 10.45 13.5ZM12 2C12.6 2 13.1917 2.05 13.775 2.15C14.3583 2.25 14.925 2.40833 15.475 2.625C15.7417 2.725 16.025 2.91267 16.325 3.188C16.625 3.46333 16.7083 3.72567 16.575 3.975C16.4417 4.22433 16.1417 4.391 15.675 4.475C15.2083 4.559 14.8333 4.55067 14.55 4.45C14.1333 4.3 13.7127 4.18767 13.288 4.113C12.8633 4.03833 12.434 4.00067 12 4C9.78333 4 7.89567 4.77933 6.337 6.338C4.77833 7.89667 3.99933 9.784 4 12C4 12.7 4.096 13.3917 4.288 14.075C4.48 14.7583 4.75067 15.4 5.1 16H18.9C19.2833 15.3667 19.5627 14.7083 19.738 14.025C19.9133 13.3417 20.0007 12.6333 20 11.9C20 11.4667 19.9623 11.0417 19.887 10.625C19.8117 10.2083 19.6993 9.8 19.55 9.4C19.45 9.11667 19.4333 8.84167 19.5 8.575C19.5667 8.30833 19.7167 8.08333 19.95 7.9C20.1667 7.73333 20.4043 7.68333 20.663 7.75C20.9217 7.81667 21.1007 7.96667 21.2 8.2C21.45 8.78333 21.6417 9.37933 21.775 9.988C21.9083 10.5967 21.9833 11.2173 22 11.85C22.0167 12.8 21.9083 13.7083 21.675 14.575C21.4417 15.4417 21.1 16.2667 20.65 17.05C20.4667 17.35 20.2167 17.5833 19.9 17.75C19.5833 17.9167 19.25 18 18.9 18H5.1C4.75 18 4.41667 17.9167 4.1 17.75C3.78333 17.5833 3.53333 17.35 3.35 17.05C2.91667 16.3 2.58333 15.5043 2.35 14.663C2.11667 13.8217 2 12.934 2 12C2 10.6167 2.26267 9.321 2.788 8.113C3.31333 6.905 4.03 5.84667 4.938 4.938C5.846 4.02933 6.90833 3.31267 8.125 2.788C9.34167 2.26333 10.6333 2.00067 12 2Z" fill="#171717"/>
</svg>
