<svg width="24" height="24" viewBox="0 0 24 24" fill="none" xmlns="http://www.w3.org/2000/svg">
<path d="M3.99989 15.76L2.99989 19.76C2.9642 19.8908 2.95546 20.0274 2.97421 20.1616C2.99296 20.2959 3.03879 20.4249 3.10894 20.5409C3.17908 20.6568 3.27207 20.7573 3.38226 20.8363C3.49244 20.9152 3.61752 20.9709 3.74989 21C3.9107 21.0406 4.07909 21.0406 4.23989 21L8.23989 20C8.41734 19.9578 8.57987 19.8679 8.70989 19.74L16.9999 11.41L18.2899 12.71L19.7099 11.29L18.4099 10L20.9999 7.41001C21.3724 7.03529 21.5815 6.52838 21.5815 6.00001C21.5815 5.47164 21.3724 4.96474 20.9999 4.59001L19.4099 3.00001C19.0352 2.62751 18.5283 2.41843 17.9999 2.41843C17.4715 2.41843 16.9646 2.62751 16.5899 3.00001L13.9999 5.59001L12.6999 4.29001L11.2799 5.71001L12.5799 7.00001L4.28989 15.29C4.15102 15.4164 4.05052 15.5792 3.99989 15.76ZM5.86989 16.51L13.9999 8.42001L15.5799 10L7.48989 18.1L5.36989 18.63L5.86989 16.51Z" fill="#171717"/>
</svg>
