<svg width="164" height="164" viewBox="0 0 164 164" fill="none" xmlns="http://www.w3.org/2000/svg">
<path d="M87.6716 41H129.833C135.27 41 140.484 43.1598 144.329 47.0043C148.173 50.8488 150.333 56.063 150.333 61.5V116.167C150.333 121.604 148.173 126.818 144.329 130.662C140.484 134.507 135.27 136.667 129.833 136.667H34.1666C28.7297 136.667 23.5154 134.507 19.6709 130.662C15.8264 126.818 13.6666 121.604 13.6666 116.167L13.6666 47.8333C13.6666 42.3964 15.8264 37.1821 19.6709 33.3376C23.5154 29.4931 28.7297 27.3333 34.1666 27.3333H68.3333C77.2576 27.3333 84.8495 33.0391 87.6716 41ZM129.833 54.6666H78.0025L74.784 45.551C74.3117 44.2182 73.4377 43.0648 72.2823 42.2497C71.127 41.4346 69.7472 40.998 68.3333 41H34.1666C32.3543 41 30.6162 41.7199 29.3347 43.0014C28.0532 44.2829 27.3333 46.021 27.3333 47.8333V116.167C27.3333 117.979 28.0532 119.717 29.3347 120.999C30.6162 122.28 32.3543 123 34.1666 123H129.833C131.646 123 133.384 122.28 134.665 120.999C135.947 119.717 136.667 117.979 136.667 116.167V61.5C136.667 59.6877 135.947 57.9496 134.665 56.6681C133.384 55.3866 131.646 54.6666 129.833 54.6666ZM109.333 68.3333H123V82H109.333V68.3333ZM95.6666 54.6666H109.333V68.3333H95.6666V54.6666ZM95.6666 82H109.333V95.6666H95.6666V82ZM109.333 95.6666H123V109.333H109.333V95.6666ZM95.6666 109.333H109.333V123H95.6666V109.333Z" fill="white"/>
</svg>
