<?xml version="1.0" encoding="UTF-8" standalone="no"?>
<!DOCTYPE svg PUBLIC "-//W3C//DTD SVG 1.1//EN" "http://www.w3.org/Graphics/SVG/1.1/DTD/svg11.dtd">
<svg width="100%" height="100%" viewBox="0 0 66 70" version="1.1" xmlns="http://www.w3.org/2000/svg" xmlns:xlink="http://www.w3.org/1999/xlink" xml:space="preserve" xmlns:serif="http://www.serif.com/" style="fill-rule:evenodd;clip-rule:evenodd;stroke-linejoin:round;stroke-miterlimit:2;">
    <g transform="matrix(1,0,0,1,-12999,-1886.89)">
        <g transform="matrix(0.845339,0,0,0.368242,6762.7,1735.36)">
            <g transform="matrix(0.621876,0,0,1.42758,5320.35,-1082.54)">
                <path d="M3408.96,1149.72C3412.33,1145.84 3414.37,1140.76 3414.37,1135.22C3414.37,1129.68 3412.33,1124.61 3408.96,1120.72C3411.25,1119.5 3413.87,1118.82 3416.64,1118.82C3425.69,1118.82 3433.05,1126.17 3433.05,1135.22C3433.05,1144.28 3425.69,1151.63 3416.64,1151.63C3413.87,1151.63 3411.25,1150.94 3408.96,1149.72Z" style="fill:rgb(21,94,83);"/>
            </g>
            <g transform="matrix(-2.06118,-5.79461e-16,4.20019e-17,-0.787327,22912,1161.85)">
                <path d="M7505.77,741.167C7505.17,741.167 7504.59,739.731 7504.16,737.176C7503.74,734.62 7503.5,731.154 7503.5,727.542C7503.5,727.537 7503.5,727.532 7503.5,727.527C7503.5,720.455 7504.46,714.725 7505.64,714.725C7509.98,714.725 7519.47,714.725 7519.47,714.725C7529.03,714.725 7536.79,761.365 7536.79,818.812C7536.79,874.123 7529.6,919.414 7520.53,922.709C7520.35,922.846 7520.21,923.755 7520.21,924.845L7520.21,924.868C7520.21,929.558 7520.21,935.945 7520.21,940.947C7520.21,944.31 7519.98,947.522 7519.57,949.814C7519.16,952.106 7518.61,953.272 7518.05,953.034L7518.04,953.029C7510.34,949.182 7504.07,914.783 7502.6,870.068L7502.6,870.056C7502.4,864.024 7502.67,857.785 7503.32,853.044C7503.97,848.304 7504.94,845.558 7505.96,845.558L7519.47,845.553C7524.26,845.553 7528.15,822.166 7528.15,793.36C7528.15,764.554 7524.26,741.167 7519.47,741.167C7519.47,741.167 7510.17,741.167 7505.77,741.167ZM7513.65,909.845C7515.37,909.845 7516.77,901.448 7516.77,891.106C7516.77,880.763 7515.37,872.366 7513.65,872.366C7511.93,872.366 7510.53,880.763 7510.53,891.106C7510.53,901.448 7511.93,909.845 7513.65,909.845Z" style="fill:rgb(42,148,132);"/>
            </g>
            <g transform="matrix(0.621876,0,0,1.42758,5305.15,-1082.54)">
                <path d="M3424.31,1149.72C3422.02,1150.94 3419.41,1151.63 3416.64,1151.63C3413.32,1151.63 3410.22,1150.64 3407.64,1148.94C3410.59,1145.17 3412.35,1140.43 3412.35,1135.28C3412.35,1130.09 3410.57,1125.32 3407.58,1121.54C3410.18,1119.82 3413.29,1118.82 3416.64,1118.82C3419.41,1118.82 3422.02,1119.5 3424.31,1120.72C3425.18,1121.18 3425.99,1121.71 3426.76,1122.31C3427.52,1122.91 3428.22,1123.57 3428.86,1124.29C3431.46,1127.19 3433.05,1131.02 3433.05,1135.22C3433.05,1139.42 3431.46,1143.26 3428.86,1146.16C3428.22,1146.88 3427.52,1147.54 3426.76,1148.13C3425.99,1148.73 3425.18,1149.27 3424.31,1149.72Z" style="fill:rgb(42,148,132);"/>
            </g>
            <g transform="matrix(-0.621876,0,0,1.42758,9511.73,-1082.54)">
                <path d="M3365.12,1148.96C3367.72,1150.68 3370.84,1151.68 3374.18,1151.68C3383.24,1151.68 3390.59,1144.33 3390.59,1135.28C3390.59,1126.22 3383.24,1118.87 3374.18,1118.87C3370.86,1118.87 3367.77,1119.86 3365.18,1121.56C3364.38,1122.09 3363.62,1122.69 3362.92,1123.35C3362.21,1124.03 3361.55,1124.76 3360.97,1125.56C3358.96,1128.28 3357.78,1131.64 3357.78,1135.28C3357.78,1138.89 3358.95,1142.23 3360.93,1144.94C3361.51,1145.74 3362.16,1146.48 3362.87,1147.16C3363.57,1147.82 3364.32,1148.42 3365.12,1148.96Z" style="fill:rgb(23,170,148);"/>
            </g>
        </g>
    </g>
</svg>
